<svg version="1.2" xmlns="http://www.w3.org/2000/svg" viewBox="0 0 128 128" width="128" height="128">
	<title>sewing-needle-svgrepo-com</title>
	<style>
		.s0 { fill: #000000 } 
		.s1 { opacity: .75;fill: #000000 } 
	</style>
	<path class="s0" d="m66.7 37.9c-9.8-3.6-20-7.3-28.5-8.9q-1.8-0.3-3.5-0.5c-2.1-2.3-5-3.2-6.7-5.1q4.8-0.1 10.5 0.9c9 1.6 19.4 5.4 29.5 9.1 16.2 5.9 31.5 11.8 40.7 8 2.3-1 4.9-2.2 6.5-6.7 3.3-9.6-6.5-21.8-15.6-24-17.9-4.4-20.8 13-20.8 13 0 0-1.2-0.5-0.8-4 0.7-6.6 4.7-15.4 20.6-13.9 12.4 1.1 24.8 16.1 21.3 29.6-1.2 4.7-3.7 8.1-7.5 10.1-10.2 5.4-27.4-0.9-45.7-7.6z"/>
	<path class="s0" d="m6.8 6.5c2.7-2.6 6.5-3.3 11.9-0.1 3.4 1.9 7.2 5.4 12.2 10.5 8.1 8.5 74.3 82.5 91 101.8 2.3 2.6 2.3 4.3 1.8 4.8-0.5 0.5-1.9 0.4-4.7-2-19.2-16-93-81.1-102.3-90.4-4.2-4.2-7.7-7.9-9.2-9.7-5.1-6.1-4-11.8-0.7-14.9zm24.3 29.9c1.5 1.4 3.2 2.2 4.4 1 1.2-1.2 1-3.3-0.4-4.8l-17.8-17.7c-1.4-1.4-3.6-1.6-4.8-0.4-1.2 1.2-0.5 2.7 0.9 4.1z"/>
	<path class="s1" d="m27.8 18.1c-5.5-5.9-9.5-9.6-12.8-11.1-6.1-2.8-9.1 0.4-8.8 0.1 2.6-2.8 6.2-4.1 12.1-1 3.4 1.9 7.2 5.3 12.6 10.8 8.1 8.5 74.5 82.7 91 101.8 2.3 2.6 2.5 4.4 1.6 4.8-16.7-19.1-87.6-96.8-95.7-105.4z"/>
	<path class="s0" d="m10 13.2c2.6-1.6 4.9-0.9 7.4 1.5 0 0-0.2-0.1-0.5-0.2-1.4-1.1-3.3-1.2-4.4-0.1-1.2 1.2-0.5 2.8 0.9 4.2l17.7 17.8c1.5 1.4 3.1 2.1 4.3 0.9 1.2-1.2 1-3.3-0.4-4.7l-0.6-0.6c0 0 6.2 4.1 2.2 8.2-2.1 2.1-5.9 0.9-7.4-0.6l-18.9-19.5c-1.6-1.6-2.8-5.3-0.3-6.9z"/>
	<path class="s0" d="m13 28.9c5.2-5.3 13.2-5.3 13.2-5.3l4.7 4.7c-7-0.4-11.2 1.2-14.8 4.8-4.2 4-5.5 10.4-4.8 14.9 3.5 24.2 36.1 28.3 36.5 28.3 28.8 3.3 44.5-8.5 53-20.2 0 0 1 6.5-5.2 12.1-8.1 7.3-19.5 13.6-38.4 13.6q-5.1 0-10.9-0.6c-13-1.5-36.6-8.9-39.9-32.1-0.8-5.6 0.6-14.1 6.6-20.2z"/>
</svg>