<svg version="1.2" xmlns="http://www.w3.org/2000/svg" viewBox="0 0 98 96" width="98" height="96">
	<title>github</title>
	<style>
		.s0 { fill: #ffffff } 
	</style>
	<path fill-rule="evenodd" class="s0" d="m48.8 6c-23.7 0-42.8 19.3-42.8 43.1 0 19.1 12.3 35.2 29.3 40.9 2.1 0.4 2.8-1 2.8-2.1 0-1 0-4.4 0-8-11.9 2.7-14.4-5.1-14.4-5.1-1.9-5-4.7-6.3-4.7-6.3-3.9-2.6 0.2-2.6 0.2-2.6 4.4 0.3 6.6 4.4 6.6 4.4 3.9 6.6 10.1 4.7 12.5 3.6 0.4-2.8 1.5-4.7 2.7-5.8-9.5-1-19.5-4.7-19.5-21.3 0-4.7 1.8-8.6 4.4-11.5-0.5-1.1-1.9-5.6 0.4-11.4 0 0 3.6-1.2 11.8 4.3q1.3-0.3 2.6-0.6 1.4-0.2 2.7-0.4 1.3-0.2 2.7-0.3 1.3-0.1 2.7-0.1c3.6 0 7.3 0.6 10.7 1.4 8.2-5.5 11.8-4.3 11.8-4.3 2.3 5.8 0.8 10.3 0.4 11.4 2.7 2.9 4.4 6.8 4.4 11.5 0 16.6-10 20.3-19.6 21.3 1.6 1.3 2.9 3.9 2.9 8 0 5.8-0.1 10.4-0.1 11.8 0 1.1 0.8 2.5 2.9 2.1 17-5.7 29.3-21.8 29.3-40.9 0.1-23.8-19.1-43.1-42.7-43.1z"/>
</svg>