<svg version="1.2" xmlns="http://www.w3.org/2000/svg" viewBox="0 0 30 30" width="30" height="30">
	<title>search</title>
	<style>
		.s0 { fill: #780116 } 
	</style>
	<g>
		<path class="s0" d="m12.2 0.7c3.4 0 6.4 1.4 8.6 3.6 2.2 2.2 3.6 5.3 3.6 8.6q0 2.1-0.6 3.9-0.1 0.3-0.2 0.6-0.6 1.4-1.4 2.5l7.1 6.4v0.1h0.1c0.4 0.3 0.6 0.8 0.6 1.4 0 0.5-0.1 1-0.5 1.4v0.1h-0.1c-0.4 0.4-0.9 0.6-1.4 0.7-0.5 0-1-0.2-1.4-0.5h-0.1v-0.1l-7.3-6.5q-0.3 0.2-0.6 0.4-0.5 0.3-1 0.6-2.4 1.2-5.4 1.2c-3.4 0-6.4-1.3-8.6-3.5-2.2-2.2-3.6-5.3-3.6-8.7 0-3.3 1.4-6.4 3.6-8.6 2.2-2.2 5.2-3.6 8.6-3.6zm0 2.8c-2.6 0-5 1-6.7 2.7-1.7 1.8-2.8 4.1-2.8 6.7 0 2.7 1.1 5 2.8 6.7 1.7 1.7 4.1 2.8 6.7 2.8 2.6 0 5-1.1 6.7-2.8 1.7-1.7 2.8-4.1 2.8-6.7 0-2.6-1.1-4.9-2.8-6.7-1.7-1.7-4.1-2.7-6.7-2.7z"/>
	</g>
</svg>